<svg width="490" height="101" viewBox="0 0 490 101" fill="none" xmlns="http://www.w3.org/2000/svg">
<path d="M130.479 43.368V90.696C130.479 91.4 128.623 91.976 124.911 92.424C121.263 92.808 117.487 93 113.583 93C109.743 93 107.247 92.84 106.095 92.52C105.007 92.136 104.463 91.528 104.463 90.696V45.096C104.463 43.688 106.255 42.312 109.839 40.968C113.487 39.56 117.455 38.856 121.743 38.856C127.567 38.856 130.479 40.36 130.479 43.368ZM117.423 18.12C121.647 18.12 124.943 18.76 127.311 20.04C129.743 21.256 130.959 23.496 130.959 26.76C130.959 32.52 126.479 35.4 117.519 35.4C108.559 35.4 104.079 32.52 104.079 26.76C104.079 21 108.527 18.12 117.423 18.12ZM195.529 61.128V90.696C195.529 91.4 193.705 91.976 190.057 92.424C186.409 92.808 182.633 93 178.729 93C174.889 93 172.393 92.84 171.241 92.52C170.153 92.136 169.609 91.528 169.609 90.696V60.168C169.609 57.288 169.481 55.4 169.225 54.504C169.033 53.608 168.841 52.808 168.649 52.104C168.201 50.888 167.401 50.28 166.249 50.28C164.457 50.28 163.561 51.144 163.561 52.872V90.696C163.561 91.4 161.737 91.976 158.089 92.424C154.505 92.808 150.761 93 146.857 93C143.017 93 140.521 92.84 139.369 92.52C138.217 92.136 137.641 91.528 137.641 90.696V43.368C137.641 42.024 139.465 40.68 143.113 39.336C146.825 37.992 150.729 37.32 154.825 37.32C158.921 37.32 161.225 38.504 161.737 40.872L162.601 45.096H163.273C165.129 41.384 168.329 38.792 172.873 37.32C174.729 36.744 176.777 36.456 179.017 36.456C185.481 36.456 189.833 38.408 192.073 42.312C194.377 46.152 195.529 52.424 195.529 61.128ZM228.155 90.696C228.155 91.4 226.363 91.976 222.779 92.424C219.195 92.808 215.451 93 211.547 93C207.643 93 205.115 92.84 203.963 92.52C202.811 92.136 202.235 91.528 202.235 90.696V24.264C202.235 22.856 204.027 21.48 207.611 20.136C211.259 18.792 215.163 18.12 219.323 18.12C225.211 18.12 228.155 19.592 228.155 22.536V58.44H229.403C232.475 43.784 234.747 36.456 236.219 36.456C239.931 36.456 244.411 37.32 249.659 39.048C254.907 40.776 257.531 42.696 257.531 44.808C257.531 46.344 256.251 49.288 253.691 53.64C251.131 57.992 248.475 61.544 245.723 64.296C254.875 75.24 259.451 81.736 259.451 83.784C259.451 85.704 256.539 88.04 250.715 90.792C244.891 93.544 240.795 94.92 238.427 94.92C237.275 94.92 236.059 93.544 234.779 90.792C233.499 87.976 232.123 83.784 230.651 78.216L228.155 81.192V90.696ZM288.514 71.304C288.514 75.464 290.498 77.544 294.466 77.544C296.77 77.544 299.778 76.776 303.49 75.24C307.202 73.64 309.154 72.84 309.346 72.84C310.562 72.84 312.162 74.664 314.146 78.312C316.13 81.96 317.122 84.648 317.122 86.376C317.122 88.872 314.562 90.76 309.442 92.04C304.322 93.32 299.298 93.96 294.37 93.96C289.506 93.96 285.41 93.576 282.082 92.808C278.818 92.04 276.13 91.08 274.018 89.928C271.97 88.712 270.146 87.24 268.546 85.512C267.01 83.784 265.858 82.152 265.09 80.616C264.322 79.016 263.714 77.256 263.266 75.336C262.626 72.52 262.306 69.608 262.306 66.6C262.306 54.952 265.346 46.92 271.426 42.504C274.434 40.264 277.794 38.696 281.506 37.8C285.218 36.904 289.602 36.456 294.658 36.456C310.85 36.456 318.946 42.088 318.946 53.352C318.946 65.32 309.858 71.304 291.682 71.304H288.514ZM288.322 57.288V63.624C290.178 63.624 291.682 62.888 292.834 61.416C294.05 59.944 294.658 58.152 294.658 56.04C294.658 52.2 293.666 50.28 291.682 50.28C289.442 50.28 288.322 52.616 288.322 57.288ZM350.593 22.536V90.696C350.593 91.4 348.769 91.976 345.121 92.424C341.473 92.808 337.697 93 333.793 93C329.953 93 327.457 92.84 326.305 92.52C325.217 92.136 324.673 91.528 324.673 90.696V24.264C324.673 22.856 326.465 21.48 330.049 20.136C333.697 18.792 337.601 18.12 341.761 18.12C347.649 18.12 350.593 19.592 350.593 22.536Z" fill="#343434"/>
<path d="M378.226 83.976C378.226 87.752 377.362 90.344 375.634 91.752C373.906 93.16 371.346 93.864 367.954 93.864C364.626 93.864 362.098 93.16 360.37 91.752C358.642 90.344 357.778 87.752 357.778 83.976C357.778 80.2 358.642 77.704 360.37 76.488C362.162 75.208 364.722 74.568 368.049 74.568C371.378 74.568 373.906 75.208 375.634 76.488C377.362 77.704 378.226 80.2 378.226 83.976ZM443.311 61.128V90.696C443.311 91.4 441.487 91.976 437.839 92.424C434.191 92.808 430.415 93 426.511 93C422.671 93 420.175 92.84 419.023 92.52C417.935 92.136 417.391 91.528 417.391 90.696V60.168C417.391 57.288 417.263 55.4 417.007 54.504C416.815 53.608 416.623 52.808 416.431 52.104C415.983 50.888 415.183 50.28 414.031 50.28C412.239 50.28 411.343 51.144 411.343 52.872V90.696C411.343 91.4 409.519 91.976 405.871 92.424C402.287 92.808 398.543 93 394.639 93C390.799 93 388.303 92.84 387.151 92.52C385.999 92.136 385.423 91.528 385.423 90.696V43.368C385.423 42.024 387.247 40.68 390.895 39.336C394.607 37.992 398.511 37.32 402.607 37.32C406.703 37.32 409.007 38.504 409.519 40.872L410.383 45.096H411.055C412.911 41.384 416.111 38.792 420.655 37.32C422.511 36.744 424.559 36.456 426.799 36.456C433.263 36.456 437.615 38.408 439.855 42.312C442.159 46.152 443.311 52.424 443.311 61.128ZM475.936 22.536V90.696C475.936 91.4 474.112 91.976 470.464 92.424C466.816 92.808 463.04 93 459.136 93C455.296 93 452.8 92.84 451.648 92.52C450.56 92.136 450.016 91.528 450.016 90.696V24.264C450.016 22.856 451.808 21.48 455.392 20.136C459.04 18.792 462.944 18.12 467.104 18.12C472.992 18.12 475.936 19.592 475.936 22.536Z" fill="#535353"/>
<path d="M34.3884 92.8064L21.2935 58.7286L56.1012 29.0087L69.1962 63.0866L34.3884 92.8064Z" fill="#343434"/>
<path d="M60.2834 70.6745L34.3937 92.8064L0 3.30023H34.3937L60.2834 70.6745Z" fill="url(#paint0_linear_167_39)"/>
<path d="M105.79 70.6745L79.9 92.8064L45.5063 3.30023H79.9L105.79 70.6745Z" fill="url(#paint1_linear_167_39)"/>
<path d="M112.933 19.8266L112.959 30.3181C107.116 30.6545 102.411 35.2352 101.862 41.027H101.81L101.784 19.8266H112.933Z" fill="#343434"/>
<path d="M135.542 19.8785C135.542 29.2002 127.985 36.7569 118.663 36.7569C109.341 36.7569 101.784 29.2002 101.784 19.8785V3H118.663C127.985 3 135.542 10.5567 135.542 19.8785Z" fill="#343434"/>
<defs>
<linearGradient id="paint0_linear_167_39" x1="0" y1="48.0559" x2="60.2834" y2="48.0559" gradientUnits="userSpaceOnUse">
<stop stop-color="#E2E2E2"/>
<stop offset="0.53" stop-color="#A19893"/>
<stop offset="1" stop-color="#141414"/>
</linearGradient>
<linearGradient id="paint1_linear_167_39" x1="45.5063" y1="-3586.76" x2="105.79" y2="-3586.76" gradientUnits="userSpaceOnUse">
<stop stop-color="#C9C6C4"/>
<stop offset="0.47" stop-color="#A29893"/>
<stop offset="1" stop-color="#535353"/>
</linearGradient>
</defs>
</svg>
