<svg width="136" height="90" viewBox="0 0 136 90" fill="none" xmlns="http://www.w3.org/2000/svg">
<path d="M34.3884 89.8064L21.2935 55.7286L56.1012 26.0088L69.1962 60.0866L34.3884 89.8064Z" fill="#E45C00"/>
<path d="M60.2834 67.6745L34.3937 89.8064L0 0.300201H34.3937L60.2834 67.6745Z" fill="url(#paint0_linear_161_24)"/>
<path d="M105.79 67.6745L79.9 89.8064L45.5063 0.300201H79.9L105.79 67.6745Z" fill="url(#paint1_linear_161_24)"/>
<path d="M112.933 16.8266L112.959 27.3181C107.116 27.6545 102.411 32.2352 101.862 38.027H101.81L101.784 16.8266H112.933Z" fill="#E45C00"/>
<path d="M135.542 16.8785C135.542 26.2002 127.985 33.7569 118.663 33.7569C109.341 33.7569 101.784 26.2002 101.784 16.8785V0H118.663C127.985 0 135.542 7.5567 135.542 16.8785Z" fill="#E45C00"/>
<defs>
<linearGradient id="paint0_linear_161_24" x1="0" y1="45.0559" x2="60.2834" y2="45.0559" gradientUnits="userSpaceOnUse">
<stop stop-color="#FF964F"/>
<stop offset="0.53" stop-color="#FF822E"/>
<stop offset="1" stop-color="#E45C00"/>
</linearGradient>
<linearGradient id="paint1_linear_161_24" x1="45.5063" y1="-3589.76" x2="105.79" y2="-3589.76" gradientUnits="userSpaceOnUse">
<stop stop-color="#FF964F"/>
<stop offset="0.47" stop-color="#FF822E"/>
<stop offset="1" stop-color="#E45C00"/>
</linearGradient>
</defs>
</svg>
