<svg width="186" height="171" viewBox="0 0 186 171" fill="none" xmlns="http://www.w3.org/2000/svg">
<path d="M175.364 171H10.6359C4.29745 171 -0.633641 167.415 0.0663043 163.315L21.2643 39.1566C21.8623 35.6511 26.4149 33 31.8339 33H154.166C159.585 33 164.138 35.6522 164.736 39.1566L185.934 163.314C186.634 167.415 181.703 171 175.364 171Z" fill="#A4D322"/>
<path d="M185.934 163.315L164.91 39.1566C164.317 35.6511 159.802 33 154.427 33H94V171H175.451C181.739 170.999 186.628 167.414 185.934 163.315Z" fill="#8CAB58"/>
<path d="M123 52.125H123.125V52V21.1193C123.125 15.5178 119.727 10.4537 114.273 6.79567C108.817 3.13702 101.292 0.875 93 0.875C84.7076 0.875 77.1826 3.13702 71.7272 6.79567C66.2726 10.4537 62.875 15.5178 62.875 21.1193V52V52.125H63H76.9534H77.0784V52V21.1193C77.0784 18.207 78.8451 15.5509 81.7285 13.6172C84.611 11.6841 88.5976 10.4828 93 10.4828C97.4024 10.4828 101.389 11.6841 104.272 13.6172C107.155 15.5509 108.922 18.207 108.922 21.1193V52V52.125H109.047H123Z" fill="#A4D322" stroke="#7D7D7D" stroke-width="0.25"/>
</svg>
