<svg width="656" height="147" viewBox="0 0 656 147" fill="none" xmlns="http://www.w3.org/2000/svg">
<path d="M114.32 120.928C113.21 122.976 107.408 124 96.9115 124C86.5008 124 81.0822 122.976 80.6555 120.928L76.3035 97.632H74.5115L70.4155 120.928C70.1595 122.976 62.6928 124 48.0155 124C43.9195 124 41.1888 123.787 39.8235 123.36C38.5435 122.848 37.6475 122.037 37.1355 120.928C21.2635 81.9307 13.3275 61.408 13.3275 59.36C13.3275 57.312 16.3995 55.2213 22.5435 53.088C28.7728 50.8693 34.7462 49.76 40.4635 49.76C47.8022 49.76 51.5995 51.7227 51.8555 55.648L56.2075 90.72H57.7435L59.2795 62.432C59.3648 60.2987 61.5408 58.4213 65.8075 56.8C70.0742 55.1787 74.3835 54.368 78.7355 54.368C83.0875 54.368 86.3302 54.9227 88.4635 56.032C90.6822 57.056 91.8342 58.336 91.9195 59.872L93.3275 90.72H94.7355L98.9595 57.824C99.2155 55.776 102.074 53.9413 107.536 52.32C113.082 50.6133 117.946 49.76 122.128 49.76C126.309 49.76 129.594 50.3573 131.984 51.552C135.909 53.4293 137.872 55.648 137.872 58.208C137.872 58.464 133.989 68.8747 126.224 89.44C118.544 110.005 114.576 120.501 114.32 120.928ZM178.243 57.824V120.928C178.243 121.867 175.768 122.635 170.819 123.232C165.955 123.744 160.92 124 155.715 124C150.595 124 147.267 123.787 145.731 123.36C144.28 122.848 143.555 122.037 143.555 120.928V60.128C143.555 58.2507 145.944 56.416 150.723 54.624C155.587 52.7467 160.877 51.808 166.595 51.808C174.36 51.808 178.243 53.8133 178.243 57.824ZM160.835 24.16C166.467 24.16 170.861 25.0133 174.019 26.72C177.261 28.3413 178.883 31.328 178.883 35.68C178.883 43.36 172.909 47.2 160.963 47.2C149.016 47.2 143.043 43.36 143.043 35.68C143.043 28 148.973 24.16 160.835 24.16ZM264.977 81.504V120.928C264.977 121.867 262.545 122.635 257.681 123.232C252.817 123.744 247.782 124 242.577 124C237.457 124 234.129 123.787 232.593 123.36C231.142 122.848 230.417 122.037 230.417 120.928V80.224C230.417 76.384 230.246 73.8667 229.905 72.672C229.649 71.4773 229.393 70.4107 229.137 69.472C228.539 67.8507 227.473 67.04 225.937 67.04C223.547 67.04 222.353 68.192 222.353 70.496V120.928C222.353 121.867 219.921 122.635 215.057 123.232C210.278 123.744 205.286 124 200.081 124C194.961 124 191.633 123.787 190.097 123.36C188.561 122.848 187.793 122.037 187.793 120.928V57.824C187.793 56.032 190.225 54.24 195.089 52.448C200.038 50.656 205.243 49.76 210.705 49.76C216.166 49.76 219.238 51.3387 219.921 54.496L221.073 60.128H221.969C224.443 55.1787 228.71 51.7227 234.769 49.76C237.243 48.992 239.974 48.608 242.961 48.608C251.579 48.608 257.382 51.2107 260.369 56.416C263.441 61.536 264.977 69.8987 264.977 81.504ZM308.478 120.928C308.478 121.867 306.088 122.635 301.31 123.232C296.531 123.744 291.539 124 286.333 124C281.128 124 277.758 123.787 276.222 123.36C274.686 122.848 273.918 122.037 273.918 120.928V32.352C273.918 30.4747 276.307 28.64 281.086 26.848C285.95 25.056 291.155 24.16 296.702 24.16C304.552 24.16 308.478 26.1227 308.478 30.048V77.92H310.142C314.238 58.3787 317.267 48.608 319.23 48.608C324.179 48.608 330.152 49.76 337.15 52.064C344.147 54.368 347.646 56.928 347.646 59.744C347.646 61.792 345.939 65.7173 342.526 71.52C339.112 77.3227 335.571 82.0587 331.902 85.728C344.104 100.32 350.206 108.981 350.206 111.712C350.206 114.272 346.323 117.387 338.558 121.056C330.792 124.725 325.331 126.56 322.174 126.56C320.638 126.56 319.016 124.725 317.31 121.056C315.603 117.301 313.768 111.712 311.806 104.288L308.478 108.256V120.928ZM388.957 95.072C388.957 100.619 391.602 103.392 396.893 103.392C399.965 103.392 403.975 102.368 408.925 100.32C413.874 98.1867 416.477 97.12 416.733 97.12C418.354 97.12 420.487 99.552 423.132 104.416C425.778 109.28 427.101 112.864 427.101 115.168C427.101 118.496 423.687 121.013 416.861 122.72C410.034 124.427 403.335 125.28 396.765 125.28C390.279 125.28 384.818 124.768 380.381 123.744C376.029 122.72 372.445 121.44 369.628 119.904C366.898 118.283 364.466 116.32 362.333 114.016C360.285 111.712 358.749 109.536 357.725 107.488C356.701 105.355 355.89 103.008 355.293 100.448C354.439 96.6933 354.013 92.8107 354.013 88.8C354.013 73.2693 358.066 62.56 366.173 56.672C370.183 53.6853 374.663 51.5947 379.613 50.4C384.562 49.2053 390.407 48.608 397.149 48.608C418.738 48.608 429.533 56.1173 429.533 71.136C429.533 87.0933 417.415 95.072 393.181 95.072H388.957ZM388.701 76.384V84.832C391.175 84.832 393.181 83.8507 394.717 81.888C396.338 79.9253 397.149 77.536 397.149 74.72C397.149 69.6 395.826 67.04 393.181 67.04C390.194 67.04 388.701 70.1547 388.701 76.384ZM471.728 30.048V120.928C471.728 121.867 469.296 122.635 464.432 123.232C459.568 123.744 454.533 124 449.328 124C444.208 124 440.88 123.787 439.344 123.36C437.893 122.848 437.168 122.037 437.168 120.928V32.352C437.168 30.4747 439.557 28.64 444.336 26.848C449.2 25.056 454.405 24.16 459.952 24.16C467.802 24.16 471.728 26.1227 471.728 30.048Z" fill="#A4D322"/>
<path d="M508.572 111.968C508.572 117.003 507.42 120.459 505.116 122.336C502.812 124.213 499.398 125.152 494.876 125.152C490.438 125.152 487.068 124.213 484.764 122.336C482.46 120.459 481.308 117.003 481.308 111.968C481.308 106.933 482.46 103.605 484.764 101.984C487.153 100.277 490.566 99.424 495.003 99.424C499.441 99.424 502.812 100.277 505.116 101.984C507.42 103.605 508.572 106.933 508.572 111.968ZM595.352 81.504V120.928C595.352 121.867 592.92 122.635 588.056 123.232C583.192 123.744 578.157 124 572.952 124C567.832 124 564.504 123.787 562.968 123.36C561.517 122.848 560.792 122.037 560.792 120.928V80.224C560.792 76.384 560.621 73.8667 560.28 72.672C560.024 71.4773 559.768 70.4107 559.512 69.472C558.914 67.8507 557.848 67.04 556.312 67.04C553.922 67.04 552.728 68.192 552.728 70.496V120.928C552.728 121.867 550.296 122.635 545.432 123.232C540.653 123.744 535.661 124 530.456 124C525.336 124 522.008 123.787 520.472 123.36C518.936 122.848 518.168 122.037 518.168 120.928V57.824C518.168 56.032 520.6 54.24 525.464 52.448C530.413 50.656 535.618 49.76 541.08 49.76C546.541 49.76 549.613 51.3387 550.296 54.496L551.448 60.128H552.344C554.818 55.1787 559.085 51.7227 565.144 49.76C567.618 48.992 570.349 48.608 573.336 48.608C581.954 48.608 587.757 51.2107 590.744 56.416C593.816 61.536 595.352 69.8987 595.352 81.504ZM638.853 30.048V120.928C638.853 121.867 636.421 122.635 631.557 123.232C626.693 123.744 621.658 124 616.453 124C611.333 124 608.005 123.787 606.469 123.36C605.018 122.848 604.293 122.037 604.293 120.928V32.352C604.293 30.4747 606.682 28.64 611.461 26.848C616.325 25.056 621.53 24.16 627.077 24.16C634.927 24.16 638.853 26.1227 638.853 30.048Z" fill="#A9A9A9"/>
<g clip-path="url(#clip0_108_109)">
<path d="M494.5 126C504.165 126 512 118.165 512 108.5C512 98.835 504.165 91 494.5 91C484.835 91 477 98.835 477 108.5C477 118.165 484.835 126 494.5 126Z" fill="#A9A9A9"/>
<path d="M511.567 112.384L500.106 100.924L500.024 101.112L496.165 97.2537L492.85 97.7369V102.185L489.806 106.713L487.08 117.962L495.107 125.988C503.167 125.714 509.843 119.99 511.567 112.384Z" fill="#7D7D7D"/>
<path d="M501.297 118.222H487.703C487.18 118.222 486.773 117.768 486.831 117.248L488.58 101.503C488.629 101.058 489.005 100.722 489.452 100.722H499.548C499.995 100.722 500.371 101.059 500.42 101.503L502.169 117.248C502.227 117.768 501.82 118.222 501.297 118.222Z" fill="#A4D322"/>
<path d="M502.169 117.248L500.42 101.503C500.371 101.058 499.995 100.722 499.548 100.722H494.52V118.222H501.297C501.82 118.222 502.227 117.768 502.169 117.248Z" fill="#8CAB58"/>
<path d="M497.034 103.175H497.159V103.05V99.1607C497.159 97.6947 495.966 96.5021 494.5 96.5021C493.034 96.5021 491.841 97.6947 491.841 99.1607V103.05V103.175H491.966H493.145H493.27V103.05V99.1607C493.27 98.4825 493.822 97.9305 494.5 97.9305C495.178 97.9305 495.73 98.4825 495.73 99.1607V103.05V103.175H495.855H497.034Z" fill="#A4D322" stroke="#A9A9A9" stroke-width="0.25"/>
</g>
<defs>
<clipPath id="clip0_108_109">
<rect width="35" height="35" fill="white" transform="translate(477 91)"/>
</clipPath>
</defs>
</svg>
