<svg width="300" height="300" viewBox="0 0 300 300" fill="none" xmlns="http://www.w3.org/2000/svg">
<g clip-path="url(#clip0_108_116)">
<path d="M150 300C232.843 300 300 232.843 300 150C300 67.1573 232.843 0 150 0C67.1573 0 0 67.1573 0 150C0 232.843 67.1573 300 150 300Z" fill="#A9A9A9"/>
<path d="M296.286 183.295L198.052 85.0606L197.345 86.6748L164.274 53.6033L135.859 57.7447V95.8682L109.765 134.68L86.4041 231.101L155.203 299.9C224.286 297.544 281.511 248.482 296.286 183.295Z" fill="#7D7D7D"/>
<path d="M208.261 233.333H91.7384C87.2548 233.333 83.7668 229.436 84.2619 224.979L99.2566 90.0252C99.6796 86.2148 102.9 83.3332 106.733 83.3332H193.267C197.1 83.3332 200.32 86.216 200.743 90.0252L215.738 224.979C216.233 229.436 212.746 233.333 208.261 233.333Z" fill="#A4D322"/>
<path d="M215.738 224.98L200.743 90.0258C200.32 86.2154 197.1 83.3338 193.267 83.3338H150.169V233.334H208.261C212.746 233.333 216.233 229.436 215.738 224.98Z" fill="#8CAB58"/>
<path d="M171.717 103.408H171.842V103.283V69.9492C171.842 57.9054 162.044 48.1071 150 48.1071C137.956 48.1071 128.158 57.9054 128.158 69.9492V103.283V103.408H128.283H138.384H138.509V103.283V69.9492C138.509 63.6134 143.664 58.458 150 58.458C156.336 58.458 161.491 63.6134 161.491 69.9492V103.283V103.408H161.616H171.717Z" fill="#A4D322" stroke="#7D7D7D" stroke-width="0.25"/>
</g>
<defs>
<clipPath id="clip0_108_116">
<rect width="300" height="300" fill="white"/>
</clipPath>
</defs>
</svg>
